<svg width="143" height="60" viewBox="0 0 143 60" fill="none" xmlns="http://www.w3.org/2000/svg">
<rect x="1" y="1" width="141" height="58" rx="13" fill="#9B51E0"/>
<rect x="1" y="1" width="141" height="58" rx="13" stroke="#9B51E0" stroke-width="2"/>
<path d="M43.68 28.08C43.3707 27.4293 42.9227 26.928 42.336 26.576C41.7493 26.2133 41.0667 26.032 40.288 26.032C39.5093 26.032 38.8053 26.2133 38.176 26.576C37.5573 26.928 37.0667 27.44 36.704 28.112C36.352 28.7733 36.176 29.5413 36.176 30.416C36.176 31.2907 36.352 32.0587 36.704 32.72C37.0667 33.3813 37.5573 33.8933 38.176 34.256C38.8053 34.608 39.5093 34.784 40.288 34.784C41.376 34.784 42.272 34.4587 42.976 33.808C43.68 33.1573 44.0907 32.2773 44.208 31.168H39.76V29.984H45.76V31.104C45.6747 32.0213 45.3867 32.864 44.896 33.632C44.4053 34.3893 43.76 34.992 42.96 35.44C42.16 35.8773 41.2693 36.096 40.288 36.096C39.2533 36.096 38.3093 35.856 37.456 35.376C36.6027 34.8853 35.9253 34.208 35.424 33.344C34.9333 32.48 34.688 31.504 34.688 30.416C34.688 29.328 34.9333 28.352 35.424 27.488C35.9253 26.6133 36.6027 25.936 37.456 25.456C38.3093 24.9653 39.2533 24.72 40.288 24.72C41.472 24.72 42.5173 25.0133 43.424 25.6C44.3413 26.1867 45.008 27.0133 45.424 28.08H43.68ZM51.5091 36.144C50.6878 36.144 49.9411 35.9573 49.2691 35.584C48.6078 35.2107 48.0851 34.6827 47.7011 34C47.3278 33.3067 47.1411 32.5067 47.1411 31.6C47.1411 30.704 47.3331 29.9147 47.7171 29.232C48.1118 28.5387 48.6451 28.0107 49.3171 27.648C49.9891 27.2747 50.7411 27.088 51.5731 27.088C52.4051 27.088 53.1571 27.2747 53.8291 27.648C54.5011 28.0107 55.0291 28.5333 55.4131 29.216C55.8078 29.8987 56.0051 30.6933 56.0051 31.6C56.0051 32.5067 55.8025 33.3067 55.3971 34C55.0025 34.6827 54.4638 35.2107 53.7811 35.584C53.0985 35.9573 52.3411 36.144 51.5091 36.144ZM51.5091 34.864C52.0318 34.864 52.5225 34.7413 52.9811 34.496C53.4398 34.2507 53.8078 33.8827 54.0851 33.392C54.3731 32.9013 54.5171 32.304 54.5171 31.6C54.5171 30.896 54.3785 30.2987 54.1011 29.808C53.8238 29.3173 53.4611 28.9547 53.0131 28.72C52.5651 28.4747 52.0798 28.352 51.5571 28.352C51.0238 28.352 50.5331 28.4747 50.0851 28.72C49.6478 28.9547 49.2958 29.3173 49.0291 29.808C48.7625 30.2987 48.6291 30.896 48.6291 31.6C48.6291 32.3147 48.7571 32.9173 49.0131 33.408C49.2798 33.8987 49.6318 34.2667 50.0691 34.512C50.5065 34.7467 50.9865 34.864 51.5091 34.864ZM70.7771 24.848V36H69.3211V30.944H63.6411V36H62.1851V24.848H63.6411V29.744H69.3211V24.848H70.7771ZM77.0873 36.144C76.2659 36.144 75.5193 35.9573 74.8473 35.584C74.1859 35.2107 73.6633 34.6827 73.2793 34C72.9059 33.3067 72.7193 32.5067 72.7193 31.6C72.7193 30.704 72.9113 29.9147 73.2953 29.232C73.6899 28.5387 74.2233 28.0107 74.8953 27.648C75.5673 27.2747 76.3193 27.088 77.1513 27.088C77.9833 27.088 78.7353 27.2747 79.4073 27.648C80.0793 28.0107 80.6073 28.5333 80.9913 29.216C81.3859 29.8987 81.5833 30.6933 81.5833 31.6C81.5833 32.5067 81.3806 33.3067 80.9753 34C80.5806 34.6827 80.0419 35.2107 79.3593 35.584C78.6766 35.9573 77.9193 36.144 77.0873 36.144ZM77.0873 34.864C77.6099 34.864 78.1006 34.7413 78.5593 34.496C79.0179 34.2507 79.3859 33.8827 79.6633 33.392C79.9513 32.9013 80.0953 32.304 80.0953 31.6C80.0953 30.896 79.9566 30.2987 79.6793 29.808C79.4019 29.3173 79.0393 28.9547 78.5913 28.72C78.1433 28.4747 77.6579 28.352 77.1353 28.352C76.6019 28.352 76.1113 28.4747 75.6633 28.72C75.2259 28.9547 74.8739 29.3173 74.6073 29.808C74.3406 30.2987 74.2073 30.896 74.2073 31.6C74.2073 32.3147 74.3353 32.9173 74.5913 33.408C74.8579 33.8987 75.2099 34.2667 75.6473 34.512C76.0846 34.7467 76.5646 34.864 77.0873 34.864ZM94.0416 27.072C94.7243 27.072 95.3323 27.216 95.8656 27.504C96.399 27.7813 96.8203 28.2027 97.1296 28.768C97.439 29.3333 97.5936 30.0213 97.5936 30.832V36H96.1536V31.04C96.1536 30.1653 95.935 29.4987 95.4976 29.04C95.071 28.5707 94.4896 28.336 93.7536 28.336C92.9963 28.336 92.3936 28.5813 91.9456 29.072C91.4976 29.552 91.2736 30.2507 91.2736 31.168V36H89.8336V31.04C89.8336 30.1653 89.615 29.4987 89.1776 29.04C88.751 28.5707 88.1696 28.336 87.4336 28.336C86.6763 28.336 86.0736 28.5813 85.6256 29.072C85.1776 29.552 84.9536 30.2507 84.9536 31.168V36H83.4976V27.232H84.9536V28.496C85.2416 28.0373 85.6256 27.6853 86.1056 27.44C86.5963 27.1947 87.135 27.072 87.7216 27.072C88.4576 27.072 89.1083 27.2373 89.6736 27.568C90.239 27.8987 90.6603 28.384 90.9376 29.024C91.183 28.4053 91.5883 27.9253 92.1536 27.584C92.719 27.2427 93.3483 27.072 94.0416 27.072ZM107.982 31.28C107.982 31.5573 107.966 31.8507 107.934 32.16H100.926C100.979 33.024 101.273 33.7013 101.806 34.192C102.35 34.672 103.006 34.912 103.774 34.912C104.403 34.912 104.926 34.768 105.342 34.48C105.769 34.1813 106.067 33.7867 106.238 33.296H107.806C107.571 34.1387 107.102 34.8267 106.398 35.36C105.694 35.8827 104.819 36.144 103.774 36.144C102.942 36.144 102.195 35.9573 101.534 35.584C100.883 35.2107 100.371 34.6827 99.998 34C99.6247 33.3067 99.438 32.5067 99.438 31.6C99.438 30.6933 99.6193 29.8987 99.982 29.216C100.345 28.5333 100.851 28.0107 101.502 27.648C102.163 27.2747 102.921 27.088 103.774 27.088C104.606 27.088 105.342 27.2693 105.982 27.632C106.622 27.9947 107.113 28.496 107.454 29.136C107.806 29.7653 107.982 30.48 107.982 31.28ZM106.478 30.976C106.478 30.4213 106.355 29.9467 106.11 29.552C105.865 29.1467 105.529 28.8427 105.102 28.64C104.686 28.4267 104.222 28.32 103.71 28.32C102.974 28.32 102.345 28.5547 101.822 29.024C101.31 29.4933 101.017 30.144 100.942 30.976H106.478Z" fill="white"/>
</svg>
