<svg width="20" height="20" viewBox="0 0 20 20" fill="none" xmlns="http://www.w3.org/2000/svg">
<path d="M2 18V2" stroke="white" stroke-width="1.5" stroke-linecap="round" stroke-linejoin="round"/>
<path d="M18 2V18" stroke="white" stroke-width="1.5" stroke-linecap="round" stroke-linejoin="round"/>
<path d="M6.2666 2H13.7333V8.4H6.2666V2Z" stroke="white" stroke-width="1.5" stroke-linecap="round" stroke-linejoin="round"/>
<path d="M6.2666 11.6H13.7333V18H6.2666V11.6Z" stroke="white" stroke-width="1.5" stroke-linecap="round" stroke-linejoin="round"/>
<path d="M4.40003 3.60001C4.40003 3.65275 4.38439 3.70431 4.35509 3.74816C4.32579 3.79202 4.28414 3.82619 4.23541 3.84638C4.18669 3.86656 4.13307 3.87184 4.08134 3.86155C4.02961 3.85126 3.9821 3.82587 3.9448 3.78857C3.90751 3.75128 3.88211 3.70376 3.87182 3.65203C3.86153 3.60031 3.86681 3.54669 3.887 3.49796C3.90718 3.44923 3.94136 3.40759 3.98521 3.37828C4.02907 3.34898 4.08062 3.33334 4.13337 3.33334C4.20409 3.33334 4.27192 3.36144 4.32193 3.41145C4.37194 3.46146 4.40003 3.52929 4.40003 3.60001Z" stroke="white" stroke-width="1.5" stroke-linecap="round" stroke-linejoin="round"/>
<path d="M4.40003 7.86667C4.40003 7.91941 4.38439 7.97097 4.35509 8.01482C4.32579 8.05868 4.28414 8.09286 4.23541 8.11304C4.18669 8.13322 4.13307 8.1385 4.08134 8.12822C4.02961 8.11793 3.9821 8.09253 3.9448 8.05523C3.90751 8.01794 3.88211 7.97043 3.87182 7.9187C3.86153 7.86697 3.86681 7.81335 3.887 7.76462C3.90718 7.7159 3.94136 7.67425 3.98521 7.64495C4.02907 7.61565 4.08062 7.60001 4.13337 7.60001C4.20409 7.60001 4.27192 7.6281 4.32193 7.67811C4.37194 7.72812 4.40003 7.79595 4.40003 7.86667Z" stroke="white" stroke-width="1.5" stroke-linecap="round" stroke-linejoin="round"/>
<path d="M4.40003 12.1333C4.40003 12.1861 4.38439 12.2376 4.35509 12.2815C4.32579 12.3253 4.28414 12.3595 4.23541 12.3797C4.18669 12.3999 4.13307 12.4052 4.08134 12.3949C4.02961 12.3846 3.9821 12.3592 3.9448 12.3219C3.90751 12.2846 3.88211 12.2371 3.87182 12.1854C3.86153 12.1336 3.86681 12.08 3.887 12.0313C3.90718 11.9826 3.94136 11.9409 3.98521 11.9116C4.02907 11.8823 4.08062 11.8667 4.13337 11.8667C4.20409 11.8667 4.27192 11.8948 4.32193 11.9448C4.37194 11.9948 4.40003 12.0626 4.40003 12.1333Z" stroke="white" stroke-width="1.5" stroke-linecap="round" stroke-linejoin="round"/>
<path d="M4.40003 16.4C4.40003 16.4527 4.38439 16.5043 4.35509 16.5482C4.32579 16.592 4.28414 16.6262 4.23541 16.6464C4.18669 16.6665 4.13307 16.6718 4.08134 16.6615C4.02961 16.6513 3.9821 16.6259 3.9448 16.5886C3.90751 16.5513 3.88211 16.5037 3.87182 16.452C3.86153 16.4003 3.86681 16.3467 3.887 16.2979C3.90718 16.2492 3.94136 16.2076 3.98521 16.1783C4.02907 16.149 4.08062 16.1333 4.13337 16.1333C4.20409 16.1333 4.27192 16.1614 4.32193 16.2114C4.37194 16.2614 4.40003 16.3293 4.40003 16.4Z" stroke="white" stroke-width="1.5" stroke-linecap="round" stroke-linejoin="round"/>
<path d="M16.1334 3.60001C16.1334 3.65275 16.1178 3.70431 16.0885 3.74816C16.0592 3.79202 16.0175 3.82619 15.9688 3.84638C15.9201 3.86656 15.8665 3.87184 15.8147 3.86155C15.763 3.85126 15.7155 3.82587 15.6782 3.78857C15.6409 3.75128 15.6155 3.70376 15.6052 3.65203C15.5949 3.60031 15.6002 3.54669 15.6204 3.49796C15.6406 3.44923 15.6748 3.40759 15.7186 3.37828C15.7625 3.34898 15.814 3.33334 15.8668 3.33334C15.9375 3.33334 16.0053 3.36144 16.0553 3.41145C16.1053 3.46146 16.1334 3.52929 16.1334 3.60001Z" stroke="white" stroke-width="1.5" stroke-linecap="round" stroke-linejoin="round"/>
<path d="M16.1334 7.86667C16.1334 7.91941 16.1178 7.97097 16.0885 8.01482C16.0592 8.05868 16.0175 8.09286 15.9688 8.11304C15.9201 8.13322 15.8665 8.1385 15.8147 8.12822C15.763 8.11793 15.7155 8.09253 15.6782 8.05523C15.6409 8.01794 15.6155 7.97043 15.6052 7.9187C15.5949 7.86697 15.6002 7.81335 15.6204 7.76462C15.6406 7.7159 15.6748 7.67425 15.7186 7.64495C15.7625 7.61565 15.814 7.60001 15.8668 7.60001C15.9375 7.60001 16.0053 7.6281 16.0553 7.67811C16.1053 7.72812 16.1334 7.79595 16.1334 7.86667Z" stroke="white" stroke-width="1.5" stroke-linecap="round" stroke-linejoin="round"/>
<path d="M16.1334 12.1333C16.1334 12.1861 16.1178 12.2376 16.0885 12.2815C16.0592 12.3253 16.0175 12.3595 15.9688 12.3797C15.9201 12.3999 15.8665 12.4052 15.8147 12.3949C15.763 12.3846 15.7155 12.3592 15.6782 12.3219C15.6409 12.2846 15.6155 12.2371 15.6052 12.1854C15.5949 12.1336 15.6002 12.08 15.6204 12.0313C15.6406 11.9826 15.6748 11.9409 15.7186 11.9116C15.7625 11.8823 15.814 11.8667 15.8668 11.8667C15.9375 11.8667 16.0053 11.8948 16.0553 11.9448C16.1053 11.9948 16.1334 12.0626 16.1334 12.1333Z" stroke="white" stroke-width="1.5" stroke-linecap="round" stroke-linejoin="round"/>
<path d="M16.1334 16.4C16.1334 16.4527 16.1178 16.5043 16.0885 16.5482C16.0592 16.592 16.0175 16.6262 15.9688 16.6464C15.9201 16.6665 15.8665 16.6718 15.8147 16.6615C15.763 16.6513 15.7155 16.6259 15.6782 16.5886C15.6409 16.5513 15.6155 16.5037 15.6052 16.452C15.5949 16.4003 15.6002 16.3467 15.6204 16.2979C15.6406 16.2492 15.6748 16.2076 15.7186 16.1783C15.7625 16.149 15.814 16.1333 15.8668 16.1333C15.9375 16.1333 16.0053 16.1614 16.0553 16.2114C16.1053 16.2614 16.1334 16.3293 16.1334 16.4Z" stroke="white" stroke-width="1.5" stroke-linecap="round" stroke-linejoin="round"/>
</svg>
