<svg width="69" height="60" viewBox="0 0 69 60" fill="none" xmlns="http://www.w3.org/2000/svg">
<path d="M0 7.45C0 5.16722 0 4.02583 0.365717 3.12292C0.873774 1.86859 1.86859 0.873774 3.12292 0.365717C4.02583 0 5.16722 0 7.45 0H60.7259C63.0087 0 64.1501 0 65.053 0.365717C66.3073 0.873774 67.3021 1.86859 67.8102 3.12292C68.1759 4.02583 68.1759 5.16722 68.1759 7.45V52.55C68.1759 54.8328 68.1759 55.9742 67.8102 56.8771C67.3021 58.1314 66.3073 59.1262 65.053 59.6343C64.1501 60 63.0087 60 60.7259 60H7.45C5.16722 60 4.02583 60 3.12292 59.6343C1.86859 59.1262 0.873774 58.1314 0.365717 56.8771C0 55.9742 0 54.8328 0 52.55V7.45Z" fill="#9B51E0"/>
<g clip-path="url(#clip0_109_2990)">
<path d="M22.9636 45.25L52.0746 31L22.9636 16.75L22.9497 27.8333L43.7532 31L22.9497 34.1667L22.9636 45.25Z" fill="#F2F2F2"/>
</g>
<defs>
<clipPath id="clip0_109_2990">
<path d="M20.1758 17C20.1758 14.2386 22.4144 12 25.1758 12H48.4613C51.2228 12 53.4613 14.2386 53.4613 17V45C53.4613 47.7614 51.2228 50 48.4613 50H25.1758C22.4144 50 20.1758 47.7614 20.1758 45V17Z" fill="white"/>
</clipPath>
</defs>
</svg>
